# xmcd
#
# Track frame offsets: 
#        150
#        15151
#        35415
#        49607
#        68360
#        89229
#        110996
#        128706
#        148259
#        168301
#        181625
#        203689
#
# Disc length: 2926 seconds
#
# Revision: 1
# Processed by: cddbd v1.5.1PL2 Copyright (c) Steve Scherf et al.
# Submitted via: ExactAudioCopy v0.95b3
#
DISCID=9d0b6c0c
DTITLE=Jill Jones and the Lone Star Chorale - Too Young For Heaven
DYEAR=2003
DGENRE=Cowboy
TTITLE0=Where Shall I Go
TTITLE1=Oh, We Were Cowboys
TTITLE2=Mocking The Bird Yodel
TTITLE3=Voice Of The Big Guitar
TTITLE4=Black Despair
TTITLE5=Cowboy Serenade
TTITLE6=Young Bill
TTITLE7=Plains Born
TTITLE8=Dust Eatin' Cowboys
TTITLE9=Love To Yodel
TTITLE10=Bosque County Romance
TTITLE11=Painted Desert
EXTD=Jill Jones and the Lone Star Chorale
EXTT0=
EXTT1=
EXTT2=
EXTT3=
EXTT4=
EXTT5=
EXTT6=
EXTT7=
EXTT8=
EXTT9=
EXTT10=
EXTT11=
PLAYORDER=
